HIERARCHY
ROOT joint_Root
{
	OFFSET 0.0 0.0 0.0
	CHANNELS 6 Xposition Yposition Zposition Zrotation Xrotation Yrotation 
	JOINT Hips
	{
		OFFSET 4.5925 91.4895 -427.239
		CHANNELS 6 Xposition Yposition Zposition Zrotation Xrotation Yrotation 
		JOINT Spine
		{
			OFFSET 15.7357 0.0 0.0
			CHANNELS 6 Xposition Yposition Zposition Zrotation Xrotation Yrotation 
			JOINT Chest
			{
				OFFSET 8.98455 -0.406207 0.0
				CHANNELS 6 Xposition Yposition Zposition Zrotation Xrotation Yrotation 
				JOINT Neck
				{
					OFFSET 16.3773 0.0 0.0
					CHANNELS 6 Xposition Yposition Zposition Zrotation Xrotation Yrotation 
					JOINT Head
					{
						OFFSET 6.45672 0.0 0.0
						CHANNELS 6 Xposition Yposition Zposition Zrotation Xrotation Yrotation 
						End Site
						{
							OFFSET 0.0 0.0 0.0
						}
					}
				}
				JOINT Shoulder_L
				{
					OFFSET 12.9942 -0.242716 4.98039
					CHANNELS 6 Xposition Yposition Zposition Zrotation Xrotation Yrotation 
					JOINT UpperArm_L
					{
						OFFSET 5.34809 0.0 0.0
						CHANNELS 6 Xposition Yposition Zposition Zrotation Xrotation Yrotation 
						JOINT LowerArm_L
						{
							OFFSET 24.3286 1.87007e-05 0.0
							CHANNELS 6 Xposition Yposition Zposition Zrotation Xrotation Yrotation 
							JOINT Hand_L
							{
								OFFSET 22.2916 0.0 0.0
								CHANNELS 6 Xposition Yposition Zposition Zrotation Xrotation Yrotation 
								End Site
								{
									OFFSET 0.0 0.0 0.0
								}
							}
						}
					}
				}
				JOINT Shoulder_R
				{
					OFFSET 12.9945 -0.242716 -4.98039
					CHANNELS 6 Xposition Yposition Zposition Zrotation Xrotation Yrotation 
					JOINT UpperArm_R
					{
						OFFSET -5.34813 0.0 0.0
						CHANNELS 6 Xposition Yposition Zposition Zrotation Xrotation Yrotation 
						JOINT LowerArm_R
						{
							OFFSET -24.3289 0.000322201 0.0
							CHANNELS 6 Xposition Yposition Zposition Zrotation Xrotation Yrotation 
							JOINT Hand_R
							{
								OFFSET -22.2915 -0.000108084 0.0
								CHANNELS 6 Xposition Yposition Zposition Zrotation Xrotation Yrotation 
								End Site
								{
									OFFSET 0.0 0.0 0.0
								}
							}
						}
					}
				}
			}
		}
		JOINT UpperLeg_L
		{
			OFFSET -2.19248 -6.46944 0.0
			CHANNELS 6 Xposition Yposition Zposition Zrotation Xrotation Yrotation 
			JOINT LowerLeg_L
			{
				OFFSET 39.0811 0.0 -1.23785e-05
				CHANNELS 6 Xposition Yposition Zposition Zrotation Xrotation Yrotation 
				JOINT Foot_L
				{
					OFFSET 40.9854 0.0 -1.26872e-05
					CHANNELS 6 Xposition Yposition Zposition Zrotation Xrotation Yrotation 
					JOINT Toes_L
					{
						OFFSET 11.7543 0.0 0.0
						CHANNELS 6 Xposition Yposition Zposition Zrotation Xrotation Yrotation 
						End Site
						{
							OFFSET 0.0 0.0 0.0
						}
					}
				}
			}
		}
		JOINT UpperLeg_R
		{
			OFFSET -2.19251 6.46944 0.0
			CHANNELS 6 Xposition Yposition Zposition Zrotation Xrotation Yrotation 
			JOINT LowerLeg_R
			{
				OFFSET -39.0811 -0.00228153 -0.0401928
				CHANNELS 6 Xposition Yposition Zposition Zrotation Xrotation Yrotation 
				JOINT Foot_R
				{
					OFFSET -40.9854 0.0 0.0
					CHANNELS 6 Xposition Yposition Zposition Zrotation Xrotation Yrotation 
					JOINT Toes_R
					{
						OFFSET -11.7543 0.0 0.0
						CHANNELS 6 Xposition Yposition Zposition Zrotation Xrotation Yrotation 
						End Site
						{
							OFFSET 0.0 0.0 0.0
						}
					}
				}
			}
		}
	}
}
MOTION
Frames:	5
Frame Time:	0.0333333
0.000000 0.000000 0.000000 0.000000 0.000000 -0.000000 2.094760 91.435200 -0.755064 89.480100 -7.426950 5.940520 15.735700 0.000005 -0.000001 86.018900 84.511200 -83.113800 8.984550 -0.406207 -0.000000 3.214330 -0.876526 5.828710 16.377300 -0.000001 -0.000001 4.863450 -1.475730 -4.256310 6.456720 -0.000001 -0.000000 -1.496340 -4.142780 -1.676550 12.994200 -0.242716 4.980390 -84.240600 -10.614200 -61.295900 5.348090 -0.000007 -0.000001 -46.845400 -63.231000 -94.797500 24.328600 0.000019 0.000005 13.813500 11.202300 -51.687200 22.291600 -0.000001 0.000005 25.119300 5.292360 0.285727 12.994500 -0.242716 -4.980390 88.258900 8.214090 -77.988800 -5.348130 -0.000001 -0.000004 -57.996300 21.550500 -6.862610 -24.328900 0.000322 -0.000009 0.465848 0.993176 -25.181300 -22.291500 -0.000108 -0.000004 15.709100 5.423770 -3.726700 -2.192480 -6.469440 -0.000000 -177.503000 -16.089100 -3.137800 39.081100 -0.000007 -0.000012 -0.093824 0.178124 27.777500 40.985400 -0.000006 -0.000013 2.287590 4.755570 -68.866500 11.754300 -0.000000 0.000003 -0.000026 -0.000318 -16.590000 -2.192510 6.469440 -0.000001 174.119000 19.874700 176.121000 -39.081100 -0.002282 -0.040193 -0.145484 0.289566 27.196200 -40.985400 0.000008 0.000006 2.039590 17.893200 -66.956400 -11.754300 -0.000006 -0.000006 -0.002261 -0.031934 -17.871700
0.000000 0.000000 0.000000 0.000000 0.000000 -0.000000 2.083150 91.463800 -0.718099 89.561400 -7.193230 5.787560 15.735700 0.000005 -0.000001 85.738500 84.541100 -82.922800 8.984550 -0.406207 -0.000000 3.150860 -0.923652 5.651010 16.377300 -0.000001 -0.000001 4.737940 -1.597570 -4.080130 6.456720 -0.000001 -0.000000 -1.588300 -4.255120 -1.432480 12.994200 -0.242716 4.980390 -84.438800 -10.290000 -61.406200 5.348090 -0.000007 -0.000001 -45.793900 -62.764800 -92.444100 24.328600 0.000019 0.000005 13.428200 10.043300 -53.855700 22.291600 -0.000001 0.000005 24.655000 5.280010 0.626335 12.994500 -0.242716 -4.980390 88.216900 8.325740 -77.866600 -5.348130 -0.000001 -0.000004 -57.940300 21.206800 -7.096690 -24.328900 0.000322 -0.000009 0.509204 1.110970 -24.670200 -22.291500 -0.000108 -0.000004 15.715600 5.419400 -3.578540 -2.192480 -6.469440 -0.000000 -177.617000 -15.985100 -3.188850 39.081100 -0.000007 -0.000012 -0.094680 0.181469 27.553100 40.985400 -0.000006 -0.000013 2.304580 4.919300 -68.765700 11.754300 -0.000000 0.000003 -0.000035 -0.000412 -16.593600 -2.192510 6.469440 -0.000001 174.061000 20.044200 176.094000 -39.081100 -0.002282 -0.040193 -0.146654 0.293604 27.056400 -40.985400 0.000008 0.000006 2.002490 17.834500 -66.933000 -11.754300 -0.000006 -0.000006 -0.002314 -0.032582 -17.898000
0.000000 0.000000 0.000000 0.000000 0.000000 -0.000000 2.043450 91.484800 -0.656462 89.665300 -6.869310 5.677200 15.735700 0.000005 -0.000001 85.249200 84.550300 -82.523100 8.984550 -0.406207 -0.000000 3.126180 -1.011990 5.474140 16.377300 -0.000001 -0.000001 4.508610 -1.724760 -3.908820 6.456720 -0.000001 -0.000000 -1.645490 -4.264180 -1.292970 12.994200 -0.242716 4.980390 -84.818600 -9.680390 -61.663500 5.348090 -0.000007 -0.000001 -43.597100 -61.983800 -88.196400 24.328600 0.000019 0.000005 13.472500 8.822290 -57.373500 22.291600 -0.000001 0.000005 23.640200 5.263060 1.087150 12.994500 -0.242716 -4.980390 88.154600 8.472640 -77.664800 -5.348130 -0.000001 -0.000004 -57.932800 20.851100 -7.310670 -24.328900 0.000322 -0.000009 0.483490 1.084490 -24.076100 -22.291500 -0.000108 -0.000004 15.818000 5.415090 -3.434530 -2.192480 -6.469440 -0.000000 -177.723000 -15.895000 -3.199070 39.081100 -0.000007 -0.000012 -0.092042 0.177935 27.351700 40.985400 -0.000006 -0.000013 2.326710 5.148670 -68.685500 11.754300 -0.000000 0.000003 -0.000034 -0.000400 -16.593100 -2.192510 6.469440 -0.000001 173.986000 20.172300 176.107000 -39.081100 -0.002282 -0.040193 -0.148626 0.298542 26.972600 -40.985400 0.000008 0.000006 1.963570 17.655600 -66.963900 -11.754300 -0.000006 -0.000006 -0.002421 -0.033865 -17.950200
0.000000 0.000000 0.000000 0.000000 0.000000 -0.000000 1.982020 91.508800 -0.595127 89.779000 -6.537100 5.537220 15.735700 0.000005 -0.000001 84.955400 84.564500 -82.311600 8.984550 -0.406207 -0.000000 3.093410 -1.062570 5.310780 16.377300 -0.000001 -0.000001 4.248660 -1.860330 -3.740420 6.456720 -0.000001 -0.000000 -1.763260 -4.217620 -1.280870 12.994200 -0.242716 4.980390 -85.275700 -8.962060 -62.053900 5.348090 -0.000007 -0.000001 -40.650300 -60.488700 -82.036100 24.328600 0.000019 0.000005 13.776600 7.370030 -62.384000 22.291600 -0.000001 0.000005 22.201400 5.237550 1.762000 12.994500 -0.242716 -4.980390 88.093800 8.610350 -77.466600 -5.348130 -0.000001 -0.000004 -58.038400 20.394500 -7.434620 -24.328900 0.000322 -0.000009 0.455924 1.058020 -23.361600 -22.291500 -0.000108 -0.000004 15.825900 5.415360 -3.443340 -2.192480 -6.469440 -0.000000 -177.830000 -15.758900 -3.228420 39.081100 -0.000007 -0.000012 -0.094051 0.183585 27.126300 40.985400 -0.000006 -0.000013 2.321650 5.362360 -68.588000 11.754300 -0.000000 0.000003 -0.000038 -0.000445 -16.594900 -2.192510 6.469440 -0.000001 173.957000 20.187300 176.078000 -39.081100 -0.002282 -0.040193 -0.149306 0.300992 26.886800 -40.985400 0.000008 0.000006 1.909410 17.331000 -66.991700 -11.754300 -0.000006 -0.000006 -0.002362 -0.033159 -17.921500
0.000000 0.000000 0.000000 0.000000 0.000000 -0.000000 1.873780 91.523800 -0.531769 89.868700 -6.061050 5.415090 15.735700 0.000005 -0.000001 84.483500 84.562700 -81.929900 8.984550 -0.406207 -0.000000 3.089380 -1.148390 5.132930 16.377300 -0.000001 -0.000001 3.870570 -2.004450 -3.470350 6.456720 -0.000001 -0.000000 -1.866940 -4.083820 -1.326250 12.994200 -0.242716 4.980390 -85.783700 -8.183060 -62.619200 5.348090 -0.000007 -0.000001 -37.056600 -58.041500 -74.162500 24.328600 0.000019 0.000005 13.991100 5.631380 -68.505800 22.291600 -0.000001 0.000005 20.604200 5.219160 2.237090 12.994500 -0.242716 -4.980390 88.023900 8.801350 -77.292400 -5.348130 -0.000001 -0.000004 -58.198000 20.254600 -7.459680 -24.328900 0.000322 -0.000009 0.417277 1.005660 -22.587600 -22.291500 -0.000108 -0.000004 15.864300 5.413290 -3.374420 -2.192480 -6.469440 -0.000000 -177.901000 -15.479000 -3.287940 39.081100 -0.000007 -0.000012 -0.092386 0.181495 26.977500 40.985400 -0.000006 -0.000013 2.291450 5.563740 -68.514100 11.754300 -0.000000 0.000003 -0.000045 -0.000512 -16.597500 -2.192510 6.469440 -0.000001 173.945000 20.367300 176.088000 -39.081100 -0.002282 -0.040193 -0.149543 0.302067 26.840300 -40.985400 0.000008 0.000006 1.903520 17.043500 -67.070200 -11.754300 -0.000006 -0.000006 -0.002219 -0.031430 -17.851200
